<?xml version="1.0" standalone="no"?><!DOCTYPE svg PUBLIC "-//W3C//DTD SVG 1.1//EN" "http://www.w3.org/Graphics/SVG/1.1/DTD/svg11.dtd"><svg t="1699691544319" class="icon" viewBox="0 0 1024 1024" version="1.1" xmlns="http://www.w3.org/2000/svg" p-id="3668" xmlns:xlink="http://www.w3.org/1999/xlink" width="200" height="200"><path d="M508.22 203.21s-331.93 8.7-331.93 154.51c0 27.42 11.28 46.52 35.38 56.94a21.79 21.79 0 0 1 13.26 20v336.81a70.28 70.28 0 0 0 70.28 70.28h426a70.28 70.28 0 0 0 70.29-70.28V433.72A21.78 21.78 0 0 1 804.28 414c23.13-10.67 35.88-29.08 35.88-56.25 0-102.34-148.61-154.54-331.94-154.54z" fill="#EF9529" p-id="3669"></path><path d="M508.67 171.42s-331.93 8.71-331.93 154.52c0 27.41 11.28 46.51 35.38 56.93a21.8 21.8 0 0 1 13.26 20v336.82A70.29 70.29 0 0 0 295.66 810h426A70.28 70.28 0 0 0 792 739.69V401.93a21.79 21.79 0 0 1 12.77-19.74c23.13-10.67 35.88-29.08 35.88-56.25-0.04-102.31-148.65-154.52-331.98-154.52z" fill="#FCAE3F" p-id="3670"></path><path d="M508.67 212.16s-284.43 3-284.6 114.21c0 0-0.27 22.06 23.55 31.24 10 3.87 18.16 16.12 18.16 26.89v346a41.31 41.31 0 0 0 41.31 41.32h403.16a41.32 41.32 0 0 0 41.32-41.32V381.7c0-9.56 7.15-20.55 15.93-24.35 26.14-11.33 25.77-36.2 25.77-36.2 0-73.84-127.42-108.99-284.6-108.99z" fill="#FFE3C5" p-id="3671"></path><path d="M294 730.68v-346c0-10.77-8.11-23-18.16-26.89-23.82-9.18-23.55-31.24-23.55-31.24 0.16-100.06 230.25-112.52 276.54-114q-9.87-0.19-19.93-0.2s-284.44 2.95-284.61 114.21c0 0-0.27 22.06 23.55 31.24 10 3.87 18.16 16.12 18.16 26.89v346A41.32 41.32 0 0 0 307.32 772h28A41.32 41.32 0 0 1 294 730.68z" fill="#FFD0A1" p-id="3672"></path></svg>