<?xml version="1.0" standalone="no"?><!DOCTYPE svg PUBLIC "-//W3C//DTD SVG 1.1//EN" "http://www.w3.org/Graphics/SVG/1.1/DTD/svg11.dtd"><svg t="1735181228258" class="icon" viewBox="0 0 1024 1024" version="1.1" xmlns="http://www.w3.org/2000/svg" p-id="5428" xmlns:xlink="http://www.w3.org/1999/xlink" width="200" height="200"><path d="M512.182857 443.428571c17.590857 0 32.365714-15.981714 32.365714-35.547428v-149.430857l-4.790857-60.342857 29.568 33.974857 49.956572 50.340571c5.979429 5.595429 13.568 9.179429 21.577143 9.179429 15.963429 0 27.154286-10.788571 27.154285-26.752 0-8.411429-2.797714-14.793143-9.581714-21.193143L533.76 127.817143c-8.411429-7.588571-14.390857-10.386286-21.577143-10.386286-7.588571 0-13.184 2.797714-21.577143 10.386286l-124.653714 115.876571c-6.784 6.4-9.581714 12.781714-9.581714 21.156572 0 15.981714 11.172571 26.770286 27.154285 26.770285 7.588571 0 15.579429-3.584 21.174858-9.179428l53.942857-54.345143 25.563428-29.952-4.790857 60.324571v149.430858c0 19.565714 15.177143 35.547429 32.768 35.547428z m205.769143 109.476572c12.8 12.379429 33.974857 12.379429 48.749714-2.011429l69.504-69.504c14.793143-14.793143 14.390857-35.565714 1.609143-47.945143-11.977143-12.8-33.152-13.184-47.945143 1.590858l-69.522285 69.522285c-14.372571 14.793143-14.774857 36.352-2.377143 48.347429z m-411.904 0c12.379429-12.379429 12.379429-33.554286-2.395429-48.347429l-69.522285-69.522285c-14.793143-14.774857-35.163429-13.970286-47.945143-1.590858-12.8 11.977143-12.8 33.152 1.993143 47.945143l69.522285 69.522286c14.774857 14.372571 35.949714 14.774857 48.347429 1.993143zM34.742857 950.034286h954.477714c19.181714 0 34.761143-14.372571 34.761143-32.365715 0-17.572571-15.579429-31.963429-34.742857-31.963428H689.188571a213.705143 213.705143 0 0 0 41.563429-126.646857c0-119.862857-99.492571-218.934857-218.550857-218.934857-119.460571 0-218.550857 99.072-218.550857 218.934857 0 47.542857 15.177143 91.099429 41.563428 126.646857H34.742857C15.981714 885.705143 0 900.096 0 917.668571c0 17.993143 15.981714 32.365714 34.742857 32.365715z m323.218286-190.976c0-84.699429 69.522286-154.221714 154.221714-154.221715s154.221714 69.522286 154.221714 154.221715a151.771429 151.771429 0 0 1-68.315428 126.646857H425.874286a152.393143 152.393143 0 0 1-67.913143-126.646857zM86.692571 781.44h98.285715c20.772571 0 36.370286-14.793143 35.968-32.365714-0.402286-17.974857-15.177143-32.768-35.968-32.768H86.692571c-20.772571 0-35.547429 14.793143-35.547428 32.768 0 17.572571 14.774857 32.365714 35.547428 32.365714z m752.713143 0h98.304c20.370286 0 35.547429-14.793143 35.547429-32.365714 0-17.974857-15.177143-32.768-35.547429-32.768h-98.304c-20.772571 0-36.352 14.793143-35.949714 32.768 0.402286 17.572571 15.177143 32.365714 35.949714 32.365714z" p-id="5429"></path></svg>