<?xml version="1.0" standalone="no"?><!DOCTYPE svg PUBLIC "-//W3C//DTD SVG 1.1//EN" "http://www.w3.org/Graphics/SVG/1.1/DTD/svg11.dtd"><svg t="1735181487727" class="icon" viewBox="0 0 1024 1024" version="1.1" xmlns="http://www.w3.org/2000/svg" p-id="6612" xmlns:xlink="http://www.w3.org/1999/xlink" width="200" height="200"><path d="M512.182857 443.428571c7.204571 0 13.202286-2.797714 21.577143-10.386285l124.672-116.260572c6.784-6.4 9.581714-12.8 9.581714-21.174857 0-15.579429-11.190857-26.770286-27.172571-26.770286-7.990857 0-15.579429 3.602286-21.577143 9.197715l-49.92 50.340571-29.568 34.358857 4.790857-60.342857V152.576c0-19.565714-14.793143-35.163429-32.365714-35.163429-17.590857 0-32.768 15.579429-32.768 35.163429v149.814857l4.790857 60.342857-25.563429-30.354285-53.942857-54.345143c-5.577143-5.595429-13.568-9.197714-21.174857-9.197715-15.981714 0-27.154286 11.190857-27.154286 26.770286 0 8.393143 2.797714 14.774857 9.581715 21.174857l124.653714 116.260572c8.393143 7.588571 13.988571 10.386286 21.577143 10.386285z m205.769143 109.476572c12.8 12.379429 33.974857 12.379429 48.749714-2.011429l69.504-69.504c14.793143-14.793143 14.390857-35.565714 1.609143-47.945143-11.977143-12.8-33.152-13.184-47.945143 1.590858l-69.522285 69.522285c-14.372571 14.793143-14.774857 36.352-2.377143 48.347429z m-460.251429-2.011429c14.774857 14.390857 35.949714 14.811429 48.347429 2.011429 12.379429-12.379429 12.379429-33.554286-2.395429-48.347429l-69.522285-69.522285c-14.793143-14.774857-35.163429-13.970286-47.945143-1.590858-12.8 11.977143-12.8 33.152 1.993143 47.945143zM34.742857 950.052571h954.477714c19.181714 0 34.761143-14.372571 34.761143-32.365714 0-17.572571-15.579429-31.963429-34.742857-31.963428H689.188571a213.705143 213.705143 0 0 0 41.563429-126.646858c0-119.862857-99.492571-218.934857-218.550857-218.934857-119.460571 0-218.550857 99.072-218.550857 218.934857 0 47.542857 15.177143 91.099429 41.563428 126.646858H34.742857C15.981714 885.705143 0 900.096 0 917.668571c0 17.993143 15.981714 32.365714 34.742857 32.365715z m323.218286-190.976c0-84.699429 69.522286-154.221714 154.221714-154.221714s154.221714 69.522286 154.221714 154.221714a151.771429 151.771429 0 0 1-68.315428 126.646858H425.874286a152.393143 152.393143 0 0 1-67.913143-126.646858zM86.692571 781.44h98.285715c20.772571 0 36.370286-14.793143 35.968-32.365714-0.402286-17.974857-15.177143-32.768-35.968-32.768H86.692571c-20.772571 0-35.547429 14.793143-35.547428 32.768 0 17.572571 14.774857 32.365714 35.547428 32.365714z m752.713143 0h98.304c20.370286 0 35.547429-14.793143 35.547429-32.365714 0-17.974857-15.177143-32.768-35.547429-32.768h-98.304c-20.772571 0-36.352 14.793143-35.949714 32.768 0.402286 17.572571 15.177143 32.365714 35.949714 32.365714z" p-id="6613"></path></svg>